%TF.GenerationSoftware,KiCad,Pcbnew,(5.99.0-12717-g57c7d663b0)*%
%TF.CreationDate,2021-10-08T11:24:07+02:00*%
%TF.ProjectId,capacitance_meter,63617061-6369-4746-916e-63655f6d6574,rev?*%
%TF.SameCoordinates,Original*%
%TF.FileFunction,Copper,L2,Bot*%
%TF.FilePolarity,Positive*%
%FSLAX46Y46*%
G04 Gerber Fmt 4.6, Leading zero omitted, Abs format (unit mm)*
G04 Created by KiCad (PCBNEW (5.99.0-12717-g57c7d663b0)) date 2021-10-08 11:24:07*
%MOMM*%
%LPD*%
G01*
G04 APERTURE LIST*
%TA.AperFunction,ComponentPad*%
%ADD10R,1.700000X1.700000*%
%TD*%
%TA.AperFunction,ComponentPad*%
%ADD11O,1.700000X1.700000*%
%TD*%
%TA.AperFunction,SMDPad,CuDef*%
%ADD12R,4.000000X2.000000*%
%TD*%
%TA.AperFunction,ViaPad*%
%ADD13C,0.800000*%
%TD*%
%TA.AperFunction,Conductor*%
%ADD14C,0.250000*%
%TD*%
G04 APERTURE END LIST*
D10*
%TO.P,J3,1,Pin_1*%
%TO.N,/SCL2*%
X151275000Y-114975000D03*
D11*
%TO.P,J3,2,Pin_2*%
%TO.N,/SDA2*%
X153815000Y-114975000D03*
%TO.P,J3,3,Pin_3*%
%TO.N,/SCL1*%
X156355000Y-114975000D03*
%TO.P,J3,4,Pin_4*%
%TO.N,/SDA1*%
X158895000Y-114975000D03*
%TO.P,J3,5,Pin_5*%
%TO.N,GND*%
X161435000Y-114975000D03*
%TO.P,J3,6,Pin_6*%
%TO.N,VDD*%
X163975000Y-114975000D03*
%TD*%
D12*
%TO.P,J1,1,Pin_1*%
%TO.N,/Shield21*%
X168999992Y-123540012D03*
%TO.P,J1,2,Pin_2*%
X168999992Y-121000012D03*
%TO.P,J1,3,Pin_3*%
%TO.N,/Shield22*%
X168999992Y-118460012D03*
%TO.P,J1,4,Pin_4*%
X168999992Y-115920012D03*
%TD*%
%TO.P,J2,1,Pin_1*%
%TO.N,/Shield11*%
X139000001Y-116389988D03*
%TO.P,J2,2,Pin_2*%
X139000001Y-118929988D03*
%TO.P,J2,3,Pin_3*%
%TO.N,/Shield12*%
X139000001Y-121469988D03*
%TO.P,J2,4,Pin_4*%
X139000001Y-124009988D03*
%TD*%
D13*
%TO.N,GND*%
X154000000Y-121000000D03*
X153075500Y-124600000D03*
%TO.N,/SDA1*%
X154000000Y-126000000D03*
%TO.N,/SCL1*%
X154800000Y-125400000D03*
%TO.N,GND*%
X147600000Y-126000000D03*
X153035000Y-118567200D03*
X160400000Y-116400000D03*
X163900000Y-116850000D03*
X157073600Y-117805200D03*
X142925800Y-115036600D03*
X154000000Y-117600000D03*
X164000000Y-125500000D03*
%TO.N,/SCL1*%
X157048200Y-119989600D03*
%TO.N,/SDA1*%
X156000000Y-120500000D03*
%TO.N,/SCL2*%
X150774400Y-119275500D03*
X147800000Y-115000000D03*
%TO.N,/SDA2*%
X149850000Y-118550000D03*
X146200000Y-115000000D03*
%TO.N,/Shield21*%
X162200000Y-121000000D03*
%TO.N,/Shield22*%
X161212299Y-118987701D03*
%TO.N,/Shield11*%
X145800000Y-119000000D03*
%TO.N,/Shield12*%
X147430158Y-121430158D03*
%TD*%
D14*
%TO.N,GND*%
X153550480Y-121449520D02*
X153550480Y-124125020D01*
X154000000Y-121000000D02*
X153550480Y-121449520D01*
X153550480Y-124125020D02*
X153075500Y-124600000D01*
%TO.N,/SCL1*%
X154449520Y-122210812D02*
X154449520Y-125049520D01*
X156038313Y-121486301D02*
X155174031Y-121486301D01*
X157048200Y-120476414D02*
X156038313Y-121486301D01*
X157048200Y-119989600D02*
X157048200Y-120476414D01*
X155174031Y-121486301D02*
X154449520Y-122210812D01*
X154449520Y-125049520D02*
X154800000Y-125400000D01*
%TO.N,/SDA1*%
X154724511Y-121300103D02*
X154000000Y-122024614D01*
X154000000Y-122024614D02*
X154000000Y-126000000D01*
X155500000Y-120500000D02*
X154724511Y-121275489D01*
X154724511Y-121275489D02*
X154724511Y-121300103D01*
X156000000Y-120500000D02*
X155500000Y-120500000D01*
X157720489Y-113800489D02*
X158895000Y-114975000D01*
X155180489Y-114488501D02*
X155868501Y-113800489D01*
X155868501Y-113800489D02*
X157720489Y-113800489D01*
X155180489Y-119680489D02*
X155180489Y-114488501D01*
X156000000Y-120500000D02*
X155180489Y-119680489D01*
%TO.N,/SCL1*%
X157048200Y-119989600D02*
X155630009Y-118571409D01*
X155630009Y-115699991D02*
X156355000Y-114975000D01*
X155630009Y-118571409D02*
X155630009Y-115699991D01*
%TO.N,/SCL2*%
X150774400Y-118449786D02*
X150150103Y-117825489D01*
X150150103Y-117825489D02*
X149361207Y-117825489D01*
X147800000Y-116264282D02*
X147800000Y-115000000D01*
X150774400Y-119275500D02*
X150774400Y-118449786D01*
X149361207Y-117825489D02*
X147800000Y-116264282D01*
%TO.N,/SDA2*%
X146200000Y-115300000D02*
X146200000Y-115000000D01*
X149450000Y-118550000D02*
X146200000Y-115300000D01*
X149850000Y-118550000D02*
X149450000Y-118550000D01*
%TD*%
%TA.AperFunction,Conductor*%
%TO.N,GND*%
G36*
X163404051Y-113528002D02*
G01*
X163450544Y-113581658D01*
X163460648Y-113651932D01*
X163431154Y-113716512D01*
X163394111Y-113745762D01*
X163248607Y-113821507D01*
X163244474Y-113824610D01*
X163244471Y-113824612D01*
X163077479Y-113949993D01*
X163069965Y-113955635D01*
X163066393Y-113959373D01*
X162958729Y-114072037D01*
X162915629Y-114117138D01*
X162912715Y-114121410D01*
X162912714Y-114121411D01*
X162859182Y-114199886D01*
X162789743Y-114301680D01*
X162774003Y-114335590D01*
X162715022Y-114462654D01*
X162695688Y-114504305D01*
X162635989Y-114719570D01*
X162612251Y-114941695D01*
X162612548Y-114946848D01*
X162612548Y-114946851D01*
X162621791Y-115107159D01*
X162625110Y-115164715D01*
X162626247Y-115169761D01*
X162626248Y-115169767D01*
X162646119Y-115257939D01*
X162674222Y-115382639D01*
X162758266Y-115589616D01*
X162797817Y-115654158D01*
X162872291Y-115775688D01*
X162874987Y-115780088D01*
X163021250Y-115948938D01*
X163193126Y-116091632D01*
X163386000Y-116204338D01*
X163594692Y-116284030D01*
X163599760Y-116285061D01*
X163599763Y-116285062D01*
X163707017Y-116306883D01*
X163813597Y-116328567D01*
X163818772Y-116328757D01*
X163818774Y-116328757D01*
X164031673Y-116336564D01*
X164031677Y-116336564D01*
X164036837Y-116336753D01*
X164041957Y-116336097D01*
X164041959Y-116336097D01*
X164253288Y-116309025D01*
X164253289Y-116309025D01*
X164258416Y-116308368D01*
X164311270Y-116292511D01*
X164467429Y-116245661D01*
X164467434Y-116245659D01*
X164472384Y-116244174D01*
X164672994Y-116145896D01*
X164854860Y-116016173D01*
X165013096Y-115858489D01*
X165064296Y-115787237D01*
X165071454Y-115777275D01*
X165127449Y-115733627D01*
X165198152Y-115727181D01*
X165261117Y-115759984D01*
X165296351Y-115821620D01*
X165299776Y-115850365D01*
X165299907Y-115888126D01*
X165301456Y-116336097D01*
X165302241Y-116563257D01*
X165282475Y-116631447D01*
X165261802Y-116656188D01*
X164630900Y-117239773D01*
X164567311Y-117271346D01*
X164546091Y-117273274D01*
X163440593Y-117279854D01*
X160575881Y-117296906D01*
X160526008Y-117299659D01*
X160513855Y-117300931D01*
X160502947Y-117302073D01*
X160502931Y-117302075D01*
X160501394Y-117302236D01*
X160467630Y-117307460D01*
X160458008Y-117308948D01*
X160458006Y-117308948D01*
X160452030Y-117309873D01*
X160446342Y-117311920D01*
X160446339Y-117311921D01*
X160320212Y-117357317D01*
X160320206Y-117357320D01*
X160315982Y-117358840D01*
X160312006Y-117360952D01*
X160257258Y-117390033D01*
X160257252Y-117390036D01*
X160253283Y-117392145D01*
X160136542Y-117477456D01*
X159806887Y-117799604D01*
X159768233Y-117841896D01*
X159767123Y-117843257D01*
X159767112Y-117843270D01*
X159753591Y-117859853D01*
X159750298Y-117863891D01*
X159749253Y-117865332D01*
X159749251Y-117865334D01*
X159720335Y-117905190D01*
X159720332Y-117905194D01*
X159716645Y-117910277D01*
X159656579Y-118041803D01*
X159655311Y-118046122D01*
X159640521Y-118096493D01*
X159636577Y-118109924D01*
X159635937Y-118114372D01*
X159635936Y-118114379D01*
X159616639Y-118248595D01*
X159616638Y-118248602D01*
X159616000Y-118253043D01*
X159616000Y-119147441D01*
X159619047Y-119202996D01*
X159622061Y-119230391D01*
X159631167Y-119285287D01*
X159682370Y-119420509D01*
X159716705Y-119482652D01*
X159719417Y-119486237D01*
X159801214Y-119594382D01*
X159801219Y-119594387D01*
X159803930Y-119597972D01*
X160007647Y-119799672D01*
X160129322Y-119920142D01*
X160129319Y-119920145D01*
X160129334Y-119920154D01*
X160133728Y-119924505D01*
X160134970Y-119925612D01*
X160134976Y-119925618D01*
X160172179Y-119958788D01*
X160173404Y-119959880D01*
X160193934Y-119976340D01*
X160195267Y-119977299D01*
X160195274Y-119977304D01*
X160216605Y-119992645D01*
X160237058Y-120007355D01*
X160368584Y-120067421D01*
X160392338Y-120074396D01*
X160432382Y-120086154D01*
X160432386Y-120086155D01*
X160436705Y-120087423D01*
X160441153Y-120088063D01*
X160441160Y-120088064D01*
X160575376Y-120107361D01*
X160575383Y-120107362D01*
X160579824Y-120108000D01*
X161003301Y-120108000D01*
X161071422Y-120128002D01*
X161117915Y-120181658D01*
X161128019Y-120251932D01*
X161124199Y-120269490D01*
X161112577Y-120309071D01*
X161111937Y-120313519D01*
X161111936Y-120313526D01*
X161092639Y-120447742D01*
X161092638Y-120447749D01*
X161092000Y-120452190D01*
X161092000Y-121547810D01*
X161094910Y-121602104D01*
X161095090Y-121603775D01*
X161095091Y-121603792D01*
X161097572Y-121626868D01*
X161097789Y-121628887D01*
X161099478Y-121639310D01*
X161105380Y-121675731D01*
X161106490Y-121682583D01*
X161122266Y-121724878D01*
X161149253Y-121797230D01*
X161157021Y-121818057D01*
X161159174Y-121822000D01*
X161159175Y-121822002D01*
X161176706Y-121854107D01*
X161191047Y-121880369D01*
X161193742Y-121883969D01*
X161274998Y-121992513D01*
X161275002Y-121992517D01*
X161277695Y-121996115D01*
X161603822Y-122322242D01*
X161605080Y-122323371D01*
X161605087Y-122323378D01*
X161625462Y-122341669D01*
X161644506Y-122358766D01*
X161645828Y-122359830D01*
X161664278Y-122374681D01*
X161664290Y-122374690D01*
X161665608Y-122375751D01*
X161710004Y-122407704D01*
X161841601Y-122467612D01*
X161909746Y-122487532D01*
X162052892Y-122507937D01*
X162057390Y-122507932D01*
X162057396Y-122507932D01*
X162769818Y-122507072D01*
X164877360Y-122504531D01*
X164945505Y-122524451D01*
X164969188Y-122544093D01*
X165447511Y-123051405D01*
X165479690Y-123114691D01*
X165481834Y-123137425D01*
X165491862Y-126159329D01*
X165491864Y-126159918D01*
X165492223Y-126177406D01*
X165492551Y-126186090D01*
X165493516Y-126203615D01*
X165494594Y-126208549D01*
X165523119Y-126339105D01*
X165518119Y-126409925D01*
X165475624Y-126466800D01*
X165409126Y-126491671D01*
X165400023Y-126492000D01*
X159134000Y-126492000D01*
X159065879Y-126471998D01*
X159019386Y-126418342D01*
X159008000Y-126366000D01*
X159008000Y-122553199D01*
X159009746Y-122532295D01*
X159012263Y-122517333D01*
X159013070Y-122512537D01*
X159013223Y-122499998D01*
X159012534Y-122495191D01*
X159012534Y-122495184D01*
X159010184Y-122478779D01*
X159009390Y-122471897D01*
X159003998Y-122410271D01*
X158996476Y-122324293D01*
X158950827Y-122153926D01*
X158948504Y-122148944D01*
X158878609Y-121999055D01*
X158878607Y-121999052D01*
X158876286Y-121994074D01*
X158775121Y-121849595D01*
X158650404Y-121724878D01*
X158505925Y-121623713D01*
X158500947Y-121621392D01*
X158500944Y-121621390D01*
X158351055Y-121551495D01*
X158351053Y-121551494D01*
X158346073Y-121549172D01*
X158340765Y-121547750D01*
X158340763Y-121547749D01*
X158240790Y-121520962D01*
X158175706Y-121503523D01*
X158115492Y-121498255D01*
X158046245Y-121492196D01*
X158036323Y-121490930D01*
X158021002Y-121488353D01*
X158012540Y-121486929D01*
X158006241Y-121486852D01*
X158004860Y-121486835D01*
X158004856Y-121486835D01*
X158000001Y-121486776D01*
X157973237Y-121490609D01*
X157972413Y-121490727D01*
X157954550Y-121492000D01*
X157232709Y-121492000D01*
X157164588Y-121471998D01*
X157118095Y-121418342D01*
X157107991Y-121348068D01*
X157137485Y-121283488D01*
X157143614Y-121276904D01*
X157260505Y-121160014D01*
X157440458Y-120980061D01*
X157448737Y-120972527D01*
X157455218Y-120968414D01*
X157501844Y-120918762D01*
X157504598Y-120915921D01*
X157524335Y-120896184D01*
X157526815Y-120892987D01*
X157534520Y-120883965D01*
X157549570Y-120867938D01*
X157564786Y-120851735D01*
X157568605Y-120844789D01*
X157568607Y-120844786D01*
X157574548Y-120833980D01*
X157585399Y-120817461D01*
X157592958Y-120807715D01*
X157597814Y-120801455D01*
X157600959Y-120794186D01*
X157600962Y-120794182D01*
X157615374Y-120760877D01*
X157620591Y-120750227D01*
X157641895Y-120711474D01*
X157643866Y-120703798D01*
X157646784Y-120696427D01*
X157648735Y-120697199D01*
X157671047Y-120655590D01*
X157782821Y-120531452D01*
X157782822Y-120531451D01*
X157787240Y-120526544D01*
X157882727Y-120361156D01*
X157941742Y-120179528D01*
X157943700Y-120160904D01*
X157961014Y-119996165D01*
X157961704Y-119989600D01*
X157949344Y-119871998D01*
X157942432Y-119806235D01*
X157942432Y-119806233D01*
X157941742Y-119799672D01*
X157882727Y-119618044D01*
X157873304Y-119601722D01*
X157840881Y-119545564D01*
X157787240Y-119452656D01*
X157754511Y-119416306D01*
X157663875Y-119315645D01*
X157663874Y-119315644D01*
X157659453Y-119310734D01*
X157546498Y-119228667D01*
X157510294Y-119202363D01*
X157510293Y-119202362D01*
X157504952Y-119198482D01*
X157498924Y-119195798D01*
X157498922Y-119195797D01*
X157336519Y-119123491D01*
X157336518Y-119123491D01*
X157330488Y-119120806D01*
X157237088Y-119100953D01*
X157150144Y-119082472D01*
X157150139Y-119082472D01*
X157143687Y-119081100D01*
X157087795Y-119081100D01*
X157019674Y-119061098D01*
X156998699Y-119044195D01*
X156300413Y-118345908D01*
X156266388Y-118283596D01*
X156263509Y-118256813D01*
X156263509Y-116461835D01*
X156283511Y-116393714D01*
X156337167Y-116347221D01*
X156394126Y-116335920D01*
X156402827Y-116336239D01*
X156411674Y-116336564D01*
X156411678Y-116336564D01*
X156416837Y-116336753D01*
X156421957Y-116336097D01*
X156421959Y-116336097D01*
X156633288Y-116309025D01*
X156633289Y-116309025D01*
X156638416Y-116308368D01*
X156691270Y-116292511D01*
X156847429Y-116245661D01*
X156847434Y-116245659D01*
X156852384Y-116244174D01*
X157052994Y-116145896D01*
X157234860Y-116016173D01*
X157393096Y-115858489D01*
X157444296Y-115787237D01*
X157523453Y-115677077D01*
X157524776Y-115678028D01*
X157571645Y-115634857D01*
X157641580Y-115622625D01*
X157707026Y-115650144D01*
X157734875Y-115681994D01*
X157794987Y-115780088D01*
X157941250Y-115948938D01*
X158113126Y-116091632D01*
X158306000Y-116204338D01*
X158514692Y-116284030D01*
X158519760Y-116285061D01*
X158519763Y-116285062D01*
X158627017Y-116306883D01*
X158733597Y-116328567D01*
X158738772Y-116328757D01*
X158738774Y-116328757D01*
X158951673Y-116336564D01*
X158951677Y-116336564D01*
X158956837Y-116336753D01*
X158961957Y-116336097D01*
X158961959Y-116336097D01*
X159173288Y-116309025D01*
X159173289Y-116309025D01*
X159178416Y-116308368D01*
X159231270Y-116292511D01*
X159387429Y-116245661D01*
X159387434Y-116245659D01*
X159392384Y-116244174D01*
X159592994Y-116145896D01*
X159774860Y-116016173D01*
X159933096Y-115858489D01*
X159984296Y-115787237D01*
X160060435Y-115681277D01*
X160063453Y-115677077D01*
X160084320Y-115634857D01*
X160160136Y-115481453D01*
X160160137Y-115481451D01*
X160162430Y-115476811D01*
X160227370Y-115263069D01*
X160256529Y-115041590D01*
X160258156Y-114975000D01*
X160239852Y-114752361D01*
X160185431Y-114535702D01*
X160096354Y-114330840D01*
X159975014Y-114143277D01*
X159824670Y-113978051D01*
X159820619Y-113974852D01*
X159820615Y-113974848D01*
X159653414Y-113842800D01*
X159653410Y-113842798D01*
X159649359Y-113839598D01*
X159476741Y-113744308D01*
X159426772Y-113693876D01*
X159412000Y-113624433D01*
X159437116Y-113558028D01*
X159494147Y-113515743D01*
X159537636Y-113508000D01*
X163335930Y-113508000D01*
X163404051Y-113528002D01*
G37*
%TD.AperFunction*%
%TA.AperFunction,Conductor*%
G36*
X150090205Y-113528002D02*
G01*
X150136698Y-113581658D01*
X150146802Y-113651932D01*
X150117308Y-113716512D01*
X150097649Y-113734826D01*
X150061739Y-113761739D01*
X149974385Y-113878295D01*
X149923255Y-114014684D01*
X149916500Y-114076866D01*
X149916500Y-115873134D01*
X149923255Y-115935316D01*
X149974385Y-116071705D01*
X150061739Y-116188261D01*
X150178295Y-116275615D01*
X150314684Y-116326745D01*
X150376866Y-116333500D01*
X152173134Y-116333500D01*
X152235316Y-116326745D01*
X152371705Y-116275615D01*
X152488261Y-116188261D01*
X152575615Y-116071705D01*
X152597799Y-116012529D01*
X152619598Y-115954382D01*
X152662240Y-115897618D01*
X152728802Y-115872918D01*
X152798150Y-115888126D01*
X152832817Y-115916114D01*
X152861250Y-115948938D01*
X153033126Y-116091632D01*
X153226000Y-116204338D01*
X153434692Y-116284030D01*
X153439760Y-116285061D01*
X153439763Y-116285062D01*
X153547017Y-116306883D01*
X153653597Y-116328567D01*
X153658772Y-116328757D01*
X153658774Y-116328757D01*
X153871673Y-116336564D01*
X153871677Y-116336564D01*
X153876837Y-116336753D01*
X153881957Y-116336097D01*
X153881959Y-116336097D01*
X154093288Y-116309025D01*
X154093289Y-116309025D01*
X154098416Y-116308368D01*
X154151270Y-116292511D01*
X154307429Y-116245661D01*
X154307434Y-116245659D01*
X154312384Y-116244174D01*
X154365559Y-116218124D01*
X154435531Y-116206118D01*
X154500888Y-116233848D01*
X154540878Y-116292511D01*
X154546989Y-116331276D01*
X154546989Y-119601722D01*
X154546462Y-119612905D01*
X154544787Y-119620398D01*
X154545036Y-119628324D01*
X154545036Y-119628325D01*
X154546927Y-119688475D01*
X154546989Y-119692434D01*
X154546989Y-119720345D01*
X154547486Y-119724279D01*
X154547486Y-119724280D01*
X154547494Y-119724345D01*
X154548427Y-119736182D01*
X154549816Y-119780378D01*
X154555467Y-119799828D01*
X154559476Y-119819189D01*
X154562015Y-119839286D01*
X154564934Y-119846657D01*
X154564934Y-119846659D01*
X154578293Y-119880401D01*
X154582138Y-119891631D01*
X154591351Y-119923343D01*
X154594471Y-119934082D01*
X154598504Y-119940901D01*
X154598506Y-119940906D01*
X154604782Y-119951517D01*
X154613477Y-119969265D01*
X154620937Y-119988106D01*
X154625599Y-119994522D01*
X154625599Y-119994523D01*
X154646925Y-120023876D01*
X154653441Y-120033796D01*
X154670557Y-120062737D01*
X154675947Y-120071851D01*
X154690268Y-120086172D01*
X154703108Y-120101205D01*
X154715017Y-120117596D01*
X154721123Y-120122647D01*
X154749094Y-120145787D01*
X154757873Y-120153777D01*
X154765000Y-120160904D01*
X154799026Y-120223216D01*
X154793961Y-120294031D01*
X154765000Y-120339094D01*
X154332253Y-120771841D01*
X154323973Y-120779376D01*
X154317493Y-120783489D01*
X154278233Y-120825297D01*
X154270868Y-120833140D01*
X154268113Y-120835982D01*
X154248376Y-120855719D01*
X154245896Y-120858916D01*
X154238193Y-120867936D01*
X154207925Y-120900168D01*
X154204106Y-120907114D01*
X154204104Y-120907117D01*
X154198163Y-120917923D01*
X154187312Y-120934442D01*
X154174898Y-120950447D01*
X154174664Y-120950266D01*
X154161596Y-120967113D01*
X153607747Y-121520962D01*
X153599461Y-121528502D01*
X153592982Y-121532614D01*
X153587557Y-121538391D01*
X153546357Y-121582265D01*
X153543602Y-121585107D01*
X153523865Y-121604844D01*
X153521385Y-121608041D01*
X153513682Y-121617061D01*
X153483414Y-121649293D01*
X153479595Y-121656239D01*
X153479593Y-121656242D01*
X153473652Y-121667048D01*
X153462801Y-121683567D01*
X153450386Y-121699573D01*
X153447241Y-121706842D01*
X153447238Y-121706846D01*
X153432826Y-121740151D01*
X153427609Y-121750801D01*
X153406305Y-121789554D01*
X153404334Y-121797229D01*
X153404334Y-121797230D01*
X153401267Y-121809176D01*
X153394863Y-121827880D01*
X153386819Y-121846469D01*
X153385580Y-121854292D01*
X153385577Y-121854302D01*
X153379901Y-121890138D01*
X153377494Y-121901763D01*
X153376576Y-121905338D01*
X153340260Y-121966343D01*
X153276726Y-121998030D01*
X153254535Y-122000000D01*
X152946173Y-122000000D01*
X152878052Y-121979998D01*
X152839047Y-121940332D01*
X152807847Y-121889942D01*
X152681994Y-121751888D01*
X152532917Y-121639310D01*
X152365691Y-121556042D01*
X152242398Y-121520962D01*
X152191616Y-121506513D01*
X152191614Y-121506513D01*
X152186013Y-121504919D01*
X152042515Y-121491622D01*
X152033283Y-121490419D01*
X152012539Y-121486929D01*
X152006211Y-121486852D01*
X152004859Y-121486835D01*
X152004855Y-121486835D01*
X152000000Y-121486776D01*
X151973236Y-121490609D01*
X151972412Y-121490727D01*
X151954549Y-121492000D01*
X150053206Y-121492000D01*
X150032302Y-121490254D01*
X150029136Y-121489721D01*
X150012538Y-121486929D01*
X150006180Y-121486851D01*
X150004857Y-121486835D01*
X150004853Y-121486835D01*
X149999999Y-121486776D01*
X149995192Y-121487465D01*
X149995185Y-121487465D01*
X149978780Y-121489815D01*
X149971898Y-121490609D01*
X149953760Y-121492196D01*
X149824294Y-121503523D01*
X149818980Y-121504947D01*
X149818979Y-121504947D01*
X149659237Y-121547749D01*
X149659235Y-121547750D01*
X149653927Y-121549172D01*
X149648947Y-121551494D01*
X149648945Y-121551495D01*
X149499056Y-121621390D01*
X149499053Y-121621392D01*
X149494075Y-121623713D01*
X149349596Y-121724878D01*
X149224879Y-121849595D01*
X149123714Y-121994074D01*
X149121393Y-121999052D01*
X149121391Y-121999055D01*
X149051496Y-122148944D01*
X149049173Y-122153926D01*
X149003524Y-122324293D01*
X148998256Y-122384507D01*
X148992197Y-122453754D01*
X148990931Y-122463676D01*
X148990269Y-122467612D01*
X148986930Y-122487459D01*
X148986777Y-122499998D01*
X148987914Y-122507937D01*
X148990727Y-122527579D01*
X148992000Y-122545442D01*
X148992000Y-126366000D01*
X148971998Y-126434121D01*
X148918342Y-126480614D01*
X148866000Y-126492000D01*
X143032378Y-126492000D01*
X142964257Y-126471998D01*
X142917764Y-126418342D01*
X142908667Y-126355564D01*
X142906941Y-126355444D01*
X142907252Y-126350956D01*
X142907882Y-126346504D01*
X142907573Y-126208549D01*
X142901002Y-123280069D01*
X142920851Y-123211903D01*
X142939246Y-123189371D01*
X142992767Y-123137425D01*
X143423530Y-122719331D01*
X143486343Y-122686239D01*
X143512141Y-122683749D01*
X143980508Y-122686927D01*
X146946944Y-122707051D01*
X146948358Y-122706997D01*
X146948377Y-122706997D01*
X146970646Y-122706151D01*
X146992362Y-122705326D01*
X146993773Y-122705209D01*
X146993790Y-122705208D01*
X147013390Y-122703583D01*
X147013406Y-122703581D01*
X147014809Y-122703465D01*
X147029443Y-122701590D01*
X147054022Y-122698440D01*
X147054026Y-122698439D01*
X147059887Y-122697688D01*
X147065507Y-122695857D01*
X147065510Y-122695856D01*
X147122720Y-122677213D01*
X147197364Y-122652890D01*
X147201397Y-122650903D01*
X147257019Y-122623497D01*
X147257023Y-122623495D01*
X147261049Y-122621511D01*
X147264757Y-122618971D01*
X147376628Y-122542337D01*
X147376633Y-122542333D01*
X147380338Y-122539795D01*
X147393626Y-122527579D01*
X147458852Y-122467612D01*
X147595841Y-122341669D01*
X147654921Y-122311179D01*
X147712446Y-122298952D01*
X147748705Y-122282809D01*
X147880880Y-122223961D01*
X147880882Y-122223960D01*
X147886910Y-122221276D01*
X148041411Y-122109024D01*
X148140205Y-121999302D01*
X148164779Y-121972010D01*
X148164780Y-121972009D01*
X148169198Y-121967102D01*
X148264685Y-121801714D01*
X148289196Y-121726277D01*
X148323752Y-121672456D01*
X148461183Y-121546107D01*
X148607693Y-121411411D01*
X148652647Y-121364428D01*
X148673368Y-121339792D01*
X148711955Y-121287448D01*
X148772021Y-121155922D01*
X148792023Y-121087801D01*
X148792664Y-121083346D01*
X148811961Y-120949130D01*
X148811962Y-120949123D01*
X148812600Y-120944682D01*
X148812600Y-120750640D01*
X148809670Y-120696159D01*
X148809487Y-120694461D01*
X148806954Y-120670976D01*
X148806952Y-120670959D01*
X148806772Y-120669293D01*
X148798021Y-120615462D01*
X148747401Y-120480020D01*
X148713335Y-120417731D01*
X148626605Y-120302034D01*
X148401663Y-120077394D01*
X148361318Y-120041190D01*
X148352137Y-120033796D01*
X148341708Y-120025398D01*
X148340403Y-120024347D01*
X148316831Y-120007355D01*
X148301444Y-119996263D01*
X148301439Y-119996260D01*
X148296424Y-119992645D01*
X148164898Y-119932579D01*
X148133443Y-119923343D01*
X148101100Y-119913846D01*
X148101096Y-119913845D01*
X148096777Y-119912577D01*
X148092329Y-119911937D01*
X148092322Y-119911936D01*
X147958106Y-119892639D01*
X147958099Y-119892638D01*
X147953658Y-119892000D01*
X147196699Y-119892000D01*
X147128578Y-119871998D01*
X147082085Y-119818342D01*
X147071981Y-119748068D01*
X147075801Y-119730510D01*
X147087423Y-119690929D01*
X147088064Y-119686474D01*
X147107361Y-119552258D01*
X147107362Y-119552251D01*
X147108000Y-119547810D01*
X147108000Y-118452190D01*
X147105090Y-118397896D01*
X147102211Y-118371113D01*
X147093510Y-118317417D01*
X147048294Y-118196193D01*
X147044551Y-118186157D01*
X147044550Y-118186155D01*
X147042979Y-118181943D01*
X147008953Y-118119631D01*
X146968238Y-118065243D01*
X146925002Y-118007487D01*
X146924998Y-118007483D01*
X146922305Y-118003885D01*
X146596260Y-117677840D01*
X146555262Y-117641064D01*
X146533995Y-117623974D01*
X146489255Y-117591851D01*
X146357565Y-117532147D01*
X146353243Y-117530891D01*
X146353238Y-117530889D01*
X146293711Y-117513588D01*
X146293712Y-117513588D01*
X146289390Y-117512332D01*
X146284939Y-117511705D01*
X146284932Y-117511703D01*
X146194106Y-117498900D01*
X146146207Y-117492147D01*
X146141714Y-117492159D01*
X146141708Y-117492159D01*
X143416632Y-117499675D01*
X143348457Y-117479860D01*
X143327190Y-117462770D01*
X142758333Y-116893913D01*
X142724307Y-116831601D01*
X142721429Y-116805381D01*
X142719591Y-116393714D01*
X142716408Y-115681277D01*
X142716246Y-115644942D01*
X142716246Y-115644941D01*
X142716224Y-115640028D01*
X142691013Y-115484236D01*
X142668669Y-115415988D01*
X142666168Y-115416807D01*
X142664067Y-115412881D01*
X142653876Y-115387425D01*
X142626705Y-115319551D01*
X142624301Y-115315387D01*
X142624297Y-115315379D01*
X142564530Y-115211860D01*
X142553816Y-115187796D01*
X142535987Y-115132924D01*
X142530510Y-115107159D01*
X142524478Y-115049771D01*
X142524478Y-115023429D01*
X142526941Y-115000000D01*
X145286496Y-115000000D01*
X145306458Y-115189928D01*
X145365473Y-115371556D01*
X145460960Y-115536944D01*
X145465375Y-115541847D01*
X145465379Y-115541852D01*
X145566500Y-115654158D01*
X145588747Y-115678866D01*
X145655247Y-115727181D01*
X145728067Y-115780088D01*
X145743248Y-115791118D01*
X145749276Y-115793802D01*
X145749278Y-115793803D01*
X145815588Y-115823326D01*
X145853434Y-115849338D01*
X147417141Y-117413046D01*
X148946348Y-118942253D01*
X148953888Y-118950539D01*
X148958000Y-118957018D01*
X148963777Y-118962443D01*
X149007651Y-119003643D01*
X149010493Y-119006398D01*
X149030230Y-119026135D01*
X149033427Y-119028615D01*
X149042447Y-119036318D01*
X149074679Y-119066586D01*
X149081624Y-119070404D01*
X149081625Y-119070405D01*
X149091555Y-119075864D01*
X149124487Y-119101968D01*
X149238747Y-119228866D01*
X149293897Y-119268935D01*
X149358188Y-119315645D01*
X149393248Y-119341118D01*
X149399276Y-119343802D01*
X149399278Y-119343803D01*
X149561681Y-119416109D01*
X149567712Y-119418794D01*
X149661112Y-119438647D01*
X149748056Y-119457128D01*
X149748061Y-119457128D01*
X149754513Y-119458500D01*
X149787063Y-119458500D01*
X149855184Y-119478502D01*
X149901677Y-119532158D01*
X149906896Y-119545564D01*
X149939873Y-119647056D01*
X150035360Y-119812444D01*
X150039778Y-119817351D01*
X150039779Y-119817352D01*
X150158725Y-119949455D01*
X150163147Y-119954366D01*
X150218418Y-119994523D01*
X150282650Y-120041190D01*
X150317648Y-120066618D01*
X150323676Y-120069302D01*
X150323678Y-120069303D01*
X150455519Y-120128002D01*
X150492112Y-120144294D01*
X150585512Y-120164147D01*
X150672456Y-120182628D01*
X150672461Y-120182628D01*
X150678913Y-120184000D01*
X150869887Y-120184000D01*
X150876339Y-120182628D01*
X150876344Y-120182628D01*
X150963288Y-120164147D01*
X151056688Y-120144294D01*
X151093281Y-120128002D01*
X151225122Y-120069303D01*
X151225124Y-120069302D01*
X151231152Y-120066618D01*
X151266151Y-120041190D01*
X151330382Y-119994523D01*
X151385653Y-119954366D01*
X151390075Y-119949455D01*
X151509021Y-119817352D01*
X151509022Y-119817351D01*
X151513440Y-119812444D01*
X151608927Y-119647056D01*
X151667942Y-119465428D01*
X151668684Y-119458374D01*
X151687214Y-119282065D01*
X151687904Y-119275500D01*
X151682982Y-119228667D01*
X151668632Y-119092135D01*
X151668632Y-119092133D01*
X151667942Y-119085572D01*
X151608927Y-118903944D01*
X151513440Y-118738556D01*
X151440263Y-118657285D01*
X151409547Y-118593279D01*
X151407900Y-118572976D01*
X151407900Y-118528553D01*
X151408427Y-118517370D01*
X151410102Y-118509877D01*
X151407962Y-118441800D01*
X151407900Y-118437841D01*
X151407900Y-118409930D01*
X151407395Y-118405930D01*
X151406462Y-118394087D01*
X151405322Y-118357815D01*
X151405073Y-118349896D01*
X151399422Y-118330444D01*
X151395414Y-118311092D01*
X151393867Y-118298849D01*
X151392874Y-118290989D01*
X151389947Y-118283596D01*
X151376600Y-118249883D01*
X151372755Y-118238656D01*
X151372121Y-118236473D01*
X151360418Y-118196193D01*
X151356384Y-118189371D01*
X151356381Y-118189365D01*
X151350106Y-118178754D01*
X151341410Y-118161004D01*
X151336872Y-118149542D01*
X151336869Y-118149537D01*
X151333952Y-118142169D01*
X151307973Y-118106411D01*
X151301457Y-118096493D01*
X151282975Y-118065243D01*
X151278942Y-118058423D01*
X151264618Y-118044099D01*
X151251776Y-118029064D01*
X151239872Y-118012679D01*
X151205806Y-117984497D01*
X151197027Y-117976508D01*
X150653755Y-117433236D01*
X150646215Y-117424950D01*
X150642103Y-117418471D01*
X150592451Y-117371845D01*
X150589610Y-117369091D01*
X150569873Y-117349354D01*
X150566676Y-117346874D01*
X150557654Y-117339169D01*
X150531203Y-117314330D01*
X150525424Y-117308903D01*
X150518478Y-117305084D01*
X150518475Y-117305082D01*
X150507669Y-117299141D01*
X150491150Y-117288290D01*
X150490686Y-117287930D01*
X150475144Y-117275875D01*
X150467875Y-117272730D01*
X150467871Y-117272727D01*
X150434566Y-117258315D01*
X150423916Y-117253098D01*
X150385163Y-117231794D01*
X150365540Y-117226756D01*
X150346837Y-117220352D01*
X150335523Y-117215456D01*
X150335522Y-117215456D01*
X150328248Y-117212308D01*
X150320425Y-117211069D01*
X150320415Y-117211066D01*
X150284579Y-117205390D01*
X150272959Y-117202984D01*
X150237814Y-117193961D01*
X150237813Y-117193961D01*
X150230133Y-117191989D01*
X150209879Y-117191989D01*
X150190168Y-117190438D01*
X150177989Y-117188509D01*
X150170160Y-117187269D01*
X150162268Y-117188015D01*
X150126142Y-117191430D01*
X150114284Y-117191989D01*
X149675801Y-117191989D01*
X149607680Y-117171987D01*
X149586706Y-117155084D01*
X148470405Y-116038782D01*
X148436379Y-115976470D01*
X148433500Y-115949687D01*
X148433500Y-115702524D01*
X148453502Y-115634403D01*
X148465858Y-115618221D01*
X148539040Y-115536944D01*
X148634527Y-115371556D01*
X148693542Y-115189928D01*
X148713504Y-115000000D01*
X148707227Y-114940276D01*
X148694232Y-114816635D01*
X148694232Y-114816633D01*
X148693542Y-114810072D01*
X148634527Y-114628444D01*
X148539040Y-114463056D01*
X148506365Y-114426766D01*
X148415675Y-114326045D01*
X148415674Y-114326044D01*
X148411253Y-114321134D01*
X148256752Y-114208882D01*
X148250724Y-114206198D01*
X148250722Y-114206197D01*
X148088319Y-114133891D01*
X148088318Y-114133891D01*
X148082288Y-114131206D01*
X147988888Y-114111353D01*
X147901944Y-114092872D01*
X147901939Y-114092872D01*
X147895487Y-114091500D01*
X147704513Y-114091500D01*
X147698061Y-114092872D01*
X147698056Y-114092872D01*
X147611112Y-114111353D01*
X147517712Y-114131206D01*
X147511682Y-114133891D01*
X147511681Y-114133891D01*
X147349278Y-114206197D01*
X147349276Y-114206198D01*
X147343248Y-114208882D01*
X147188747Y-114321134D01*
X147184326Y-114326044D01*
X147184325Y-114326045D01*
X147093636Y-114426766D01*
X147033190Y-114464006D01*
X146962207Y-114462654D01*
X146906364Y-114426766D01*
X146815675Y-114326045D01*
X146815674Y-114326044D01*
X146811253Y-114321134D01*
X146656752Y-114208882D01*
X146650724Y-114206198D01*
X146650722Y-114206197D01*
X146488319Y-114133891D01*
X146488318Y-114133891D01*
X146482288Y-114131206D01*
X146388888Y-114111353D01*
X146301944Y-114092872D01*
X146301939Y-114092872D01*
X146295487Y-114091500D01*
X146104513Y-114091500D01*
X146098061Y-114092872D01*
X146098056Y-114092872D01*
X146011112Y-114111353D01*
X145917712Y-114131206D01*
X145911682Y-114133891D01*
X145911681Y-114133891D01*
X145749278Y-114206197D01*
X145749276Y-114206198D01*
X145743248Y-114208882D01*
X145588747Y-114321134D01*
X145584326Y-114326044D01*
X145584325Y-114326045D01*
X145493636Y-114426766D01*
X145460960Y-114463056D01*
X145365473Y-114628444D01*
X145306458Y-114810072D01*
X145305768Y-114816633D01*
X145305768Y-114816635D01*
X145292773Y-114940276D01*
X145286496Y-115000000D01*
X142526941Y-115000000D01*
X142530510Y-114966041D01*
X142535987Y-114940276D01*
X142553817Y-114885401D01*
X142564531Y-114861337D01*
X142623827Y-114758633D01*
X142625908Y-114755029D01*
X142640550Y-114719570D01*
X142675361Y-114635262D01*
X142675361Y-114635261D01*
X142676949Y-114631416D01*
X142693829Y-114567853D01*
X142697953Y-114535702D01*
X142710313Y-114439324D01*
X142710313Y-114439320D01*
X142710842Y-114435197D01*
X142708227Y-113849729D01*
X142705146Y-113796087D01*
X142702217Y-113769636D01*
X142701949Y-113768006D01*
X142701946Y-113767987D01*
X142694492Y-113722717D01*
X142694491Y-113722713D01*
X142693490Y-113716634D01*
X142679093Y-113678253D01*
X142673896Y-113607447D01*
X142707804Y-113545071D01*
X142770053Y-113510930D01*
X142797066Y-113508000D01*
X150022084Y-113508000D01*
X150090205Y-113528002D01*
G37*
%TD.AperFunction*%
%TD*%
%TA.AperFunction,Conductor*%
%TO.N,/Shield12*%
G36*
X148021779Y-120420002D02*
G01*
X148042694Y-120436845D01*
X148267636Y-120661485D01*
X148301702Y-120723774D01*
X148304600Y-120750640D01*
X148304600Y-120944682D01*
X148284598Y-121012803D01*
X148263877Y-121037439D01*
X147036522Y-122165823D01*
X146972837Y-122197202D01*
X146950390Y-122199063D01*
X143983954Y-122178939D01*
X143256000Y-122174000D01*
X142392400Y-123012200D01*
X142392423Y-123022526D01*
X142399883Y-126347644D01*
X142380034Y-126415810D01*
X142362978Y-126437022D01*
X142344905Y-126455095D01*
X142282593Y-126489121D01*
X142255810Y-126492000D01*
X137234000Y-126492000D01*
X137165879Y-126471998D01*
X137119386Y-126418342D01*
X137108000Y-126366000D01*
X137108000Y-120595488D01*
X137128002Y-120527367D01*
X137181658Y-120480874D01*
X137234000Y-120469488D01*
X140984919Y-120469488D01*
X141018406Y-120474020D01*
X141083026Y-120491835D01*
X141127255Y-120499853D01*
X141217870Y-120508000D01*
X146147810Y-120508000D01*
X146202104Y-120505090D01*
X146203775Y-120504910D01*
X146203792Y-120504909D01*
X146227207Y-120502392D01*
X146227222Y-120502390D01*
X146228887Y-120502211D01*
X146250432Y-120498720D01*
X146276470Y-120494501D01*
X146276474Y-120494500D01*
X146282583Y-120493510D01*
X146346986Y-120469488D01*
X146413843Y-120444551D01*
X146413845Y-120444550D01*
X146418057Y-120442979D01*
X146429291Y-120436845D01*
X146468539Y-120415413D01*
X146528926Y-120400000D01*
X147953658Y-120400000D01*
X148021779Y-120420002D01*
G37*
%TD.AperFunction*%
%TD*%
%TA.AperFunction,Conductor*%
%TO.N,/Shield22*%
G36*
X171034121Y-113528002D02*
G01*
X171080614Y-113581658D01*
X171092000Y-113634000D01*
X171092000Y-119365512D01*
X171071998Y-119433633D01*
X171018342Y-119480126D01*
X170966000Y-119491512D01*
X166951858Y-119491512D01*
X166948860Y-119491838D01*
X166942848Y-119492000D01*
X162052190Y-119492000D01*
X161997896Y-119494910D01*
X161996225Y-119495090D01*
X161996208Y-119495091D01*
X161972793Y-119497608D01*
X161972778Y-119497610D01*
X161971113Y-119497789D01*
X161949568Y-119501280D01*
X161923530Y-119505499D01*
X161923526Y-119505500D01*
X161917417Y-119506490D01*
X161911612Y-119508655D01*
X161911613Y-119508655D01*
X161786157Y-119555449D01*
X161786155Y-119555450D01*
X161781943Y-119557021D01*
X161778000Y-119559174D01*
X161777998Y-119559175D01*
X161731461Y-119584587D01*
X161671074Y-119600000D01*
X160579824Y-119600000D01*
X160511703Y-119579998D01*
X160491173Y-119563538D01*
X160486767Y-119559175D01*
X160161349Y-119236979D01*
X160127014Y-119174836D01*
X160124000Y-119147441D01*
X160124000Y-118253043D01*
X160144002Y-118184922D01*
X160161937Y-118162927D01*
X160491592Y-117840779D01*
X160554291Y-117807474D01*
X160578905Y-117804897D01*
X164777084Y-117779908D01*
X164777085Y-117779908D01*
X164795200Y-117779800D01*
X165811200Y-116840000D01*
X165800181Y-113652445D01*
X165819947Y-113584256D01*
X165837085Y-113562915D01*
X165855095Y-113544905D01*
X165917407Y-113510879D01*
X165944190Y-113508000D01*
X170966000Y-113508000D01*
X171034121Y-113528002D01*
G37*
%TD.AperFunction*%
%TD*%
%TA.AperFunction,Conductor*%
%TO.N,/Shield21*%
G36*
X171015931Y-120020002D02*
G01*
X171036905Y-120036905D01*
X171055095Y-120055095D01*
X171089121Y-120117407D01*
X171092000Y-120144190D01*
X171092000Y-126366000D01*
X171071998Y-126434121D01*
X171018342Y-126480614D01*
X170966000Y-126492000D01*
X166282000Y-126492000D01*
X166213879Y-126471998D01*
X166181200Y-126441600D01*
X166025060Y-126233414D01*
X166000189Y-126166916D01*
X165999861Y-126158232D01*
X165989060Y-122903318D01*
X165989000Y-122885200D01*
X165150800Y-121996200D01*
X165140711Y-121996212D01*
X162769205Y-121999072D01*
X162052279Y-121999937D01*
X161984134Y-121980017D01*
X161963032Y-121963032D01*
X161636905Y-121636905D01*
X161602879Y-121574593D01*
X161600000Y-121547810D01*
X161600000Y-120452190D01*
X161620002Y-120384069D01*
X161636905Y-120363095D01*
X161963095Y-120036905D01*
X162025407Y-120002879D01*
X162052190Y-120000000D01*
X170947810Y-120000000D01*
X171015931Y-120020002D01*
G37*
%TD.AperFunction*%
%TD*%
%TA.AperFunction,Conductor*%
%TO.N,/Shield11*%
G36*
X141922971Y-113528002D02*
G01*
X141943773Y-113544733D01*
X142163162Y-113763300D01*
X142197303Y-113825547D01*
X142200232Y-113851998D01*
X142202847Y-114437466D01*
X142185967Y-114501029D01*
X142091273Y-114665044D01*
X142032258Y-114846672D01*
X142012296Y-115036600D01*
X142032258Y-115226528D01*
X142091273Y-115408156D01*
X142184356Y-115569380D01*
X142186760Y-115573544D01*
X142185885Y-115574049D01*
X142208229Y-115642297D01*
X142214600Y-117068600D01*
X143154400Y-118008400D01*
X143164997Y-118008371D01*
X146147608Y-118000145D01*
X146215783Y-118019960D01*
X146237050Y-118037050D01*
X146563095Y-118363095D01*
X146597121Y-118425407D01*
X146600000Y-118452190D01*
X146600000Y-119547810D01*
X146579998Y-119615931D01*
X146563095Y-119636905D01*
X146236905Y-119963095D01*
X146174593Y-119997121D01*
X146147810Y-120000000D01*
X141217870Y-120000000D01*
X141173641Y-119991982D01*
X141117712Y-119971015D01*
X141117710Y-119971015D01*
X141110317Y-119968243D01*
X141102469Y-119967390D01*
X141102467Y-119967390D01*
X141051532Y-119961857D01*
X141048135Y-119961488D01*
X137234000Y-119961488D01*
X137165879Y-119941486D01*
X137119386Y-119887830D01*
X137108000Y-119835488D01*
X137108000Y-113634000D01*
X137128002Y-113565879D01*
X137181658Y-113519386D01*
X137234000Y-113508000D01*
X141854850Y-113508000D01*
X141922971Y-113528002D01*
G37*
%TD.AperFunction*%
%TD*%
M02*
