%TF.GenerationSoftware,KiCad,Pcbnew,(5.99.0-12717-g57c7d663b0)*%
%TF.CreationDate,2021-10-08T11:24:07+02:00*%
%TF.ProjectId,capacitance_meter,63617061-6369-4746-916e-63655f6d6574,rev?*%
%TF.SameCoordinates,Original*%
%TF.FileFunction,Paste,Top*%
%TF.FilePolarity,Positive*%
%FSLAX46Y46*%
G04 Gerber Fmt 4.6, Leading zero omitted, Abs format (unit mm)*
G04 Created by KiCad (PCBNEW (5.99.0-12717-g57c7d663b0)) date 2021-10-08 11:24:07*
%MOMM*%
%LPD*%
G01*
G04 APERTURE LIST*
G04 Aperture macros list*
%AMRoundRect*
0 Rectangle with rounded corners*
0 $1 Rounding radius*
0 $2 $3 $4 $5 $6 $7 $8 $9 X,Y pos of 4 corners*
0 Add a 4 corners polygon primitive as box body*
4,1,4,$2,$3,$4,$5,$6,$7,$8,$9,$2,$3,0*
0 Add four circle primitives for the rounded corners*
1,1,$1+$1,$2,$3*
1,1,$1+$1,$4,$5*
1,1,$1+$1,$6,$7*
1,1,$1+$1,$8,$9*
0 Add four rect primitives between the rounded corners*
20,1,$1+$1,$2,$3,$4,$5,0*
20,1,$1+$1,$4,$5,$6,$7,0*
20,1,$1+$1,$6,$7,$8,$9,0*
20,1,$1+$1,$8,$9,$2,$3,0*%
G04 Aperture macros list end*
%ADD10RoundRect,0.237500X-0.300000X-0.237500X0.300000X-0.237500X0.300000X0.237500X-0.300000X0.237500X0*%
%ADD11RoundRect,0.237500X-0.237500X0.250000X-0.237500X-0.250000X0.237500X-0.250000X0.237500X0.250000X0*%
%ADD12RoundRect,0.075000X0.650000X0.075000X-0.650000X0.075000X-0.650000X-0.075000X0.650000X-0.075000X0*%
%ADD13RoundRect,0.075000X-0.650000X-0.075000X0.650000X-0.075000X0.650000X0.075000X-0.650000X0.075000X0*%
%ADD14RoundRect,0.100000X0.712500X0.100000X-0.712500X0.100000X-0.712500X-0.100000X0.712500X-0.100000X0*%
%ADD15R,4.000000X2.000000*%
G04 APERTURE END LIST*
D10*
%TO.C,C4*%
X145543100Y-122783600D03*
X147268100Y-122783600D03*
%TD*%
%TO.C,C2*%
X160732300Y-122783600D03*
X162457300Y-122783600D03*
%TD*%
%TO.C,C5*%
X145543100Y-124561600D03*
X147268100Y-124561600D03*
%TD*%
D11*
%TO.C,R4*%
X148600000Y-114087500D03*
X148600000Y-115912500D03*
%TD*%
D12*
%TO.C,U3*%
X163800000Y-121000000D03*
X163800000Y-120500000D03*
X163800000Y-120000000D03*
X163800000Y-119500000D03*
X163800000Y-119000000D03*
X159400000Y-119000000D03*
X159400000Y-119500000D03*
X159400000Y-120000000D03*
X159400000Y-120500000D03*
X159400000Y-121000000D03*
%TD*%
D13*
%TO.C,U1*%
X144200000Y-119000000D03*
X144200000Y-119500000D03*
X144200000Y-120000000D03*
X144200000Y-120500000D03*
X144200000Y-121000000D03*
X148600000Y-121000000D03*
X148600000Y-120500000D03*
X148600000Y-120000000D03*
X148600000Y-119500000D03*
X148600000Y-119000000D03*
%TD*%
D10*
%TO.C,C1*%
X153137500Y-120000000D03*
X154862500Y-120000000D03*
%TD*%
%TO.C,C3*%
X160732300Y-124561600D03*
X162457300Y-124561600D03*
%TD*%
D11*
%TO.C,R3*%
X147000000Y-114087500D03*
X147000000Y-115912500D03*
%TD*%
%TO.C,R1*%
X143800000Y-114087500D03*
X143800000Y-115912500D03*
%TD*%
%TO.C,R2*%
X145400000Y-114087500D03*
X145400000Y-115912500D03*
%TD*%
D14*
%TO.C,U2*%
X156112700Y-125975000D03*
X156112700Y-125325000D03*
X156112700Y-124675000D03*
X156112700Y-124025000D03*
X151887700Y-124025000D03*
X151887700Y-124675000D03*
X151887700Y-125325000D03*
X151887700Y-125975000D03*
%TD*%
D15*
%TO.C,J1*%
X168999992Y-115920012D03*
X168999992Y-118460012D03*
X168999992Y-121000012D03*
X168999992Y-123540012D03*
%TD*%
%TO.C,J2*%
X139000001Y-124009988D03*
X139000001Y-121469988D03*
X139000001Y-118929988D03*
X139000001Y-116389988D03*
%TD*%
M02*
