M48
; DRILL file {KiCad (5.99.0-12717-g57c7d663b0)} date Fri Oct  8 11:24:13 2021
; FORMAT={-:-/ absolute / inch / decimal}
; #@! TF.CreationDate,2021-10-08T11:24:13+02:00
; #@! TF.GenerationSoftware,Kicad,Pcbnew,(5.99.0-12717-g57c7d663b0)
; #@! TF.FileFunction,Plated,1,2,PTH
FMAT,2
INCH
; #@! TA.AperFunction,Plated,PTH,ViaDrill
T1C0.0157
; #@! TA.AperFunction,Plated,PTH,ComponentDrill
T2C0.0394
%
G90
G05
T1
X5.627Y-4.529
X5.7402Y-4.685
X5.7559Y-4.5276
X5.8043Y-4.7807
X5.811Y-4.9606
X5.8189Y-4.5276
X5.8996Y-4.6673
X5.936Y-4.6959
X6.025Y-4.668
X6.0266Y-4.9055
X6.063Y-4.6299
X6.063Y-4.7638
X6.063Y-4.9606
X6.0945Y-4.937
X6.1417Y-4.7441
X6.183Y-4.724
X6.184Y-4.638
X6.315Y-4.5827
X6.3469Y-4.6846
X6.3858Y-4.7638
X6.4528Y-4.6004
X6.4567Y-4.9409
T2
X5.9557Y-4.5266
X6.0557Y-4.5266
X6.1557Y-4.5266
X6.2557Y-4.5266
X6.3557Y-4.5266
X6.4557Y-4.5266
T0
M30
